<?xml version="1.0" encoding="UTF-8" standalone="no"?>
<!-- Created with Inkscape (http://www.inkscape.org/) -->

<svg
   width="889"
   height="556"
   viewBox="0 0 235.21458 147.10833"
   version="1.1"
   id="svg1"
   inkscape:version="1.4 (86a8ad7, 2024-10-11)"
   sodipodi:docname="yfb-fsfs-zh-banner.svg"
   inkscape:export-filename="yfb-fsfs-zh-banner.png"
   inkscape:export-xdpi="96"
   inkscape:export-ydpi="96"
   xmlns:inkscape="http://www.inkscape.org/namespaces/inkscape"
   xmlns:sodipodi="http://sodipodi.sourceforge.net/DTD/sodipodi-0.dtd"
   xmlns="http://www.w3.org/2000/svg"
   xmlns:svg="http://www.w3.org/2000/svg"
   xmlns:rdf="http://www.w3.org/1999/02/22-rdf-syntax-ns#"
   xmlns:cc="http://creativecommons.org/ns#"
   xmlns:dc="http://purl.org/dc/elements/1.1/">
  <title
     id="title1">GitHub Banner of Free Software, Free Society v3 Chinese Translation (Edited by Mike Wang)</title>
  <sodipodi:namedview
     id="namedview1"
     pagecolor="#ffffff"
     bordercolor="#000000"
     borderopacity="0.25"
     inkscape:showpageshadow="2"
     inkscape:pageopacity="0.0"
     inkscape:pagecheckerboard="0"
     inkscape:deskcolor="#d1d1d1"
     inkscape:document-units="mm"
     inkscape:zoom="1.05"
     inkscape:cx="396.66667"
     inkscape:cy="290.95238"
     inkscape:window-width="1920"
     inkscape:window-height="991"
     inkscape:window-x="-9"
     inkscape:window-y="-9"
     inkscape:window-maximized="1"
     inkscape:current-layer="layer1"
     inkscape:export-bgcolor="#ffffffff" />
  <defs
     id="defs1" />
  <g
     inkscape:label="图层 1"
     inkscape:groupmode="layer"
     id="layer1">
    <g
       style="display:inline;fill:#ff00ff"
       id="g15"
       transform="matrix(0.59645304,0,0,0.59645304,160.80567,79.575707)">
      <path
         d="M 8.785,9.896 A 3.001,3.001 0 0 0 8,4 3,3 0 0 0 7.109,9.865 c 0.667,-0.44 1.396,-0.91 1.955,-1.268 0.224,-0.144 0.483,0.115 0.34,0.34 l -0.62,0.96 z M 9,7 A 1,1 0 1 1 7,7 1,1 0 0 1 9,7 Z"
         id="path1-7"
         style="fill:#ff00ff" />
      <path
         d="M 4,0 A 2,2 0 0 0 2,2 v 12 a 2,2 0 0 0 2,2 h 8 a 2,2 0 0 0 2,-2 V 2 A 2,2 0 0 0 12,0 Z m 9,1.5 a 0.5,0.5 0 1 1 -1,0 0.5,0.5 0 0 1 1,0 z m 0,13 a 0.5,0.5 0 1 1 -1,0 0.5,0.5 0 0 1 1,0 z M 3.5,15 a 0.5,0.5 0 1 1 0,-1 0.5,0.5 0 0 1 0,1 z M 4,1.5 a 0.5,0.5 0 1 1 -1,0 0.5,0.5 0 0 1 1,0 z M 6.882,12.677 A 1.1027331,1.1027331 0 0 1 5.322,11.118 C 5.422,11.02 5.718,10.804 6.117,10.53 A 4,4 0 1 1 8.063,11 c -0.537,0.813 -1.02,1.515 -1.181,1.677 z"
         id="path2-4"
         style="fill:#ff00ff" />
    </g>
    <g
       style="display:inline;fill:#ff00ff"
       id="g16"
       transform="matrix(0.5827099,0,0,0.5827099,90.644097,99.805633)">
      <path
         d="M 5,8 V 4 h 6 v 4 z"
         id="path1-1"
         style="fill:#ff00ff" />
      <path
         d="M 4,0 A 2,2 0 0 0 2,2 v 12 a 2,2 0 0 0 2,2 h 8 a 2,2 0 0 0 2,-2 V 2 A 2,2 0 0 0 12,0 Z m 0,1.5 a 0.5,0.5 0 1 1 -1,0 0.5,0.5 0 0 1 1,0 z m 9,0 a 0.5,0.5 0 1 1 -1,0 0.5,0.5 0 0 1 1,0 z M 3.5,11 a 0.5,0.5 0 1 0 0,-1 0.5,0.5 0 0 0 0,1 z M 13,10.5 a 0.5,0.5 0 1 1 -1,0 0.5,0.5 0 0 1 1,0 z M 4.75,3 h 6.5 A 0.75,0.75 0 0 1 12,3.75 v 4.5 A 0.75,0.75 0 0 1 11.25,9 H 4.75 A 0.75,0.75 0 0 1 4,8.25 V 3.75 A 0.75,0.75 0 0 1 4.75,3 Z M 5,12 h 6 a 1,1 0 0 1 1,1 v 2 h -1 v -2 h -0.75 v 2 h -1 V 13 H 8.5 v 2 h -1 V 13 H 6.75 v 2 h -1 V 13 H 5 v 2 H 4 v -2 a 1,1 0 0 1 1,-1 z"
         id="path2-3"
         style="fill:#ff00ff" />
    </g>
    <g
       style="display:inline;fill:#ff00ff"
       id="g17"
       transform="matrix(0.70639832,0,0,0.70639832,111.64364,79.273354)">
      <path
         d="m 6,12 c 0,0.667 -0.083,1.167 -0.25,1.5 H 5 a 0.5,0.5 0 0 0 0,1 h 6 a 0.5,0.5 0 0 0 0,-1 H 10.25 C 10.083,13.167 10,12.667 10,12 h 4 c 2,0 2,-2 2,-2 V 4 C 16,2 14,2 14,2 H 2 C 0,2 0,4 0,4 v 6 c 0,2 2,2 2,2 z"
         id="path1-0"
         style="fill:#ff00ff" />
    </g>
    <g
       style="display:inline;fill:#ff00ff"
       id="g19"
       transform="matrix(0.56896673,0,0,0.56896673,186.80222,99.58574)">
      <path
         d="M 6,3 A 3,3 0 1 1 0,3 3,3 0 0 1 6,3 Z"
         id="path1-75"
         style="fill:#ff00ff" />
      <path
         d="M 9,6 A 3,3 0 1 1 9,0 3,3 0 0 1 9,6 Z"
         id="path2-6"
         style="fill:#ff00ff" />
      <path
         d="m 9,6 h 0.5 a 2,2 0 0 1 1.983,1.738 l 3.11,-1.382 A 1,1 0 0 1 16,7.269 v 7.462 a 1,1 0 0 1 -1.406,0.913 L 11.483,14.262 A 2,2 0 0 1 9.5,16 H 2 A 2,2 0 0 1 0,14 V 8 A 2,2 0 0 1 2,6 Z"
         id="path3-54"
         style="fill:#ff00ff" />
    </g>
    <g
       style="display:inline;fill:#ff00ff"
       id="g20"
       transform="matrix(0.59645063,0,0,0.59645063,212.1776,123.20205)">
      <path
         d="m 16,7 a 1,1 0 0 1 -1,1 v 3.5 c 0,0.818 -0.393,1.544 -1,2 v 2 A 0.5,0.5 0 0 1 13.5,16 h -2 A 0.5,0.5 0 0 1 11,15.5 V 14 H 5 v 1.5 A 0.5,0.5 0 0 1 4.5,16 h -2 A 0.5,0.5 0 0 1 2,15.5 v -2 a 2.496,2.496 0 0 1 -1,-2 V 8 A 1,1 0 0 1 0,7 V 5 A 1,1 0 0 1 1,4 V 2.64 C 1,1.452 1.845,0.408 3.064,0.268 A 43.608,43.608 0 0 1 8,0 c 2.1,0 3.792,0.136 4.936,0.268 C 14.155,0.408 15,1.452 15,2.64 V 4 a 1,1 0 0 1 1,1 z M 3.552,3.22 A 43.306,43.306 0 0 1 8,3 c 1.837,0 3.353,0.107 4.448,0.22 A 0.5,0.5 0 0 0 12.552,2.226 44.304,44.304 0 0 0 8,2 C 6.124,2 4.574,2.109 3.448,2.226 A 0.5,0.5 0 1 0 3.552,3.22 Z M 8,4 C 6.124,4 4.574,4.109 3.448,4.226 A 0.5,0.5 0 0 0 3,4.723 V 8.277 A 0.5,0.5 0 0 0 3.448,8.774 C 4.574,8.891 6.124,9 8,9 9.876,9 11.426,8.891 12.552,8.774 A 0.5,0.5 0 0 0 13,8.277 V 4.723 A 0.5,0.5 0 0 0 12.552,4.226 44.304,44.304 0 0 0 8,4 Z m -3,7 a 1,1 0 1 0 -2,0 1,1 0 0 0 2,0 z m 8,0 a 1,1 0 1 0 -2,0 1,1 0 0 0 2,0 z m -7,0 a 1,1 0 0 0 1,1 H 9 A 1,1 0 1 0 9,10 H 7 a 1,1 0 0 0 -1,1 z"
         id="path1-2"
         style="fill:#ff00ff" />
    </g>
    <g
       style="display:inline;fill:#ff00ff"
       id="g22"
       transform="matrix(0.68480194,0,0,0.68480194,136.44729,61.343641)">
      <path
         d="M 4,8 A 1.5,1.5 0 1 1 7,8 1.5,1.5 0 0 1 4,8 Z m 7.5,-1.5 a 1.5,1.5 0 1 0 0,3 1.5,1.5 0 0 0 0,-3 z"
         id="path1-72"
         style="fill:#ff00ff" />
      <path
         d="M 0,1.5 A 0.5,0.5 0 0 1 0.5,1 h 1 A 0.5,0.5 0 0 1 2,1.5 V 4 H 15.5 A 0.5,0.5 0 0 1 16,4.5 v 7 A 0.5,0.5 0 0 1 15.5,12 H 2 v 2.5 a 0.5,0.5 0 0 1 -1,0 V 2 H 0.5 A 0.5,0.5 0 0 1 0,1.5 Z m 5.5,4 a 2.5,2.5 0 1 0 0,5 2.5,2.5 0 0 0 0,-5 z M 9,8 a 2.5,2.5 0 1 0 5,0 2.5,2.5 0 0 0 -5,0 z"
         id="path2-41"
         style="fill:#ff00ff" />
      <path
         d="m 3,12.5 h 3.5 v 1 A 0.5,0.5 0 0 1 6,14 H 3.5 A 0.5,0.5 0 0 1 3,13.5 Z m 4,1 v -1 h 4 v 1 A 0.5,0.5 0 0 1 10.5,14 h -3 A 0.5,0.5 0 0 1 7,13.5 Z"
         id="path3-6"
         style="fill:#ff00ff" />
    </g>
    <text
       xml:space="preserve"
       style="font-style:normal;font-variant:normal;font-weight:bold;font-stretch:normal;font-size:12.7px;line-height:0%;font-family:'Century Schoolbook L';-inkscape-font-specification:'Century Schoolbook L Bold';text-align:start;letter-spacing:0px;word-spacing:0px;writing-mode:lr-tb;text-anchor:start;display:inline;fill:#000000;fill-opacity:1;stroke:#000000;stroke-width:0.225778;stroke-miterlimit:4;stroke-dasharray:none;stroke-opacity:1"
       x="11.752005"
       y="33.198257"
       id="text3010"
       inkscape:export-xdpi="150"
       inkscape:export-ydpi="150"><tspan
         sodipodi:role="line"
         x="11.752005"
         y="33.198257"
         id="tspan5096"
         style="font-style:normal;font-variant:normal;font-weight:bold;font-stretch:normal;font-size:12.7px;line-height:128%;font-family:'Noto Sans CJK SC';-inkscape-font-specification:'Noto Sans CJK SC Bold';letter-spacing:0.851843px;stroke:#000000;stroke-width:0.225778;stroke-miterlimit:4;stroke-dasharray:none;stroke-opacity:1">自由软件，自由社会</tspan></text>
    <text
       xml:space="preserve"
       style="font-style:normal;font-variant:normal;font-weight:600;font-stretch:normal;font-size:3.38667px;line-height:0%;font-family:'Noto Sans';-inkscape-font-specification:'Noto Sans Semi-Bold';text-align:start;letter-spacing:0px;word-spacing:0px;writing-mode:lr-tb;text-anchor:start;display:inline;fill:#000000;fill-opacity:1;stroke:none;stroke-width:0.282222"
       x="12.782606"
       y="45.733536"
       id="text3010-5"><tspan
         sodipodi:role="line"
         x="12.782606"
         y="45.733536"
         id="tspan3188-3"
         style="font-style:normal;font-variant:normal;font-weight:600;font-stretch:normal;font-size:8.78408px;line-height:1.25;font-family:'Noto Sans';-inkscape-font-specification:'Noto Sans Semi-Bold';stroke-width:0.282222">Free Software, Free Society</tspan></text>
    <text
       xml:space="preserve"
       style="font-style:normal;font-variant:normal;font-weight:normal;font-stretch:normal;font-size:4.93889px;font-family:'Noto Sans CJK SC';-inkscape-font-specification:'Noto Sans CJK SC';writing-mode:lr-tb;direction:ltr;display:inline;fill:#000000;stroke-width:0.264583"
       x="12.91786"
       y="16.644505"
       id="text1"><tspan
         sodipodi:role="line"
         id="tspan1"
         style="font-size:4.93889px;writing-mode:lr-tb;stroke-width:0.264583"
         x="12.91786"
         y="16.644505">自由和开源软件先锋文库</tspan></text>
    <text
       xml:space="preserve"
       style="font-style:normal;font-variant:normal;font-weight:normal;font-stretch:normal;font-size:3.38667px;line-height:0;font-family:'Liberation Sans';-inkscape-font-specification:'Liberation Sans';text-align:start;letter-spacing:0px;word-spacing:0px;writing-mode:lr-tb;text-anchor:start;display:inline;fill:#000000;fill-opacity:1;stroke:none;stroke-width:0.282222"
       x="12.89348"
       y="56.491226"
       id="text3190"
       inkscape:export-xdpi="150"
       inkscape:export-ydpi="150"><tspan
         sodipodi:role="line"
         id="tspan3192"
         x="12.89348"
         y="56.491226"
         style="font-style:normal;font-variant:normal;font-weight:500;font-stretch:normal;font-size:5.64444px;line-height:1.25;font-family:'Noto Sans CJK SC';-inkscape-font-specification:'Noto Sans CJK SC Medium';stroke-width:0.282222">理查德·斯托曼（<tspan
   style="font-style:normal;font-variant:normal;font-weight:500;font-stretch:normal;font-family:'Noto Sans';-inkscape-font-specification:'Noto Sans Medium';stroke-width:0.282222"
   id="tspan2">Richard M. Stallman</tspan>）选集 </tspan><tspan
         sodipodi:role="line"
         x="12.89348"
         y="64.083733"
         style="font-style:normal;font-variant:normal;font-weight:500;font-stretch:normal;font-size:5.64444px;line-height:1.25;font-family:'Noto Sans CJK SC';-inkscape-font-specification:'Noto Sans CJK SC Medium';stroke-width:0.282222"
         id="tspan5349">第三版</tspan><tspan
         sodipodi:role="line"
         x="12.89348"
         y="70.56459"
         style="font-style:italic;font-variant:normal;font-weight:normal;font-stretch:normal;font-size:5.64444px;line-height:1.25;font-family:'Liberation Sans';-inkscape-font-specification:'Liberation Sans Italic';stroke-width:0.282222"
         id="tspan5104"> </tspan><tspan
         style="font-style:normal;font-variant:normal;font-weight:normal;font-stretch:normal;font-size:4.23333px;line-height:1.65;font-family:'Noto Sans CJK SC';-inkscape-font-specification:'Noto Sans CJK SC';stroke-width:0.282222"
         sodipodi:role="line"
         id="tspan21"
         x="12.89348"
         y="77.713867">[美] 理查德·斯托曼   著</tspan><tspan
         style="font-style:normal;font-variant:normal;font-weight:normal;font-stretch:normal;font-size:4.23333px;line-height:1.25;font-family:'Noto Sans CJK SC';-inkscape-font-specification:'Noto Sans CJK SC';letter-spacing:0.235479px;stroke-width:0.282222"
         sodipodi:role="line"
         id="tspan9"
         x="12.89348"
         y="83.852196">北京 <tspan
   style="font-style:normal;font-variant:normal;font-weight:normal;font-stretch:normal;font-family:'Noto Sans';-inkscape-font-specification:'Noto Sans';letter-spacing:0.235479px;stroke-width:0.282222"
   id="tspan4">GNU/Linux</tspan> 用户组</tspan><tspan
         sodipodi:role="line"
         x="12.89348"
         y="89.546577"
         style="font-style:normal;font-variant:normal;font-weight:normal;font-stretch:normal;font-size:4.23333px;line-height:1.25;font-family:'Noto Sans CJK SC';-inkscape-font-specification:'Noto Sans CJK SC';stroke-width:0.282222"
         id="tspan5"
         dy="0 0 0 0 0 0 0 0 0 0 0 0 0 0 0 -2.5174222"><tspan
   style="font-style:normal;font-variant:normal;font-weight:normal;font-stretch:normal;font-family:'Noto Sans';-inkscape-font-specification:'Noto Sans';stroke-width:0.282222"
   id="tspan6">GNU</tspan> 网站中文翻译者团队  译</tspan><tspan
         style="font-style:normal;font-variant:normal;font-weight:normal;font-stretch:normal;font-size:4.23333px;line-height:1.65;font-family:'Noto Sans CJK SC';-inkscape-font-specification:'Noto Sans CJK SC';stroke-width:0.282222"
         sodipodi:role="line"
         id="tspan30"
         x="12.89348"
         y="96.087624"><tspan
   style="font-style:normal;font-variant:normal;font-weight:normal;font-stretch:normal;font-family:'Noto Sans';-inkscape-font-specification:'Noto Sans';stroke-width:0.282222"
   id="tspan7">Mike Wang</tspan>   主编</tspan><tspan
         sodipodi:role="line"
         x="12.89348"
         y="99.308067"
         style="font-style:italic;font-variant:normal;font-weight:normal;font-stretch:normal;font-size:5.64444px;line-height:1.25;font-family:'Noto Sans CJK SC';-inkscape-font-specification:'Noto Sans CJK SC Italic';stroke-width:0.282222"
         id="tspan3" /></text>
    <text
       xml:space="preserve"
       style="font-style:normal;font-variant:normal;font-weight:normal;font-stretch:normal;font-size:5.64444px;line-height:1.25;font-family:'Noto Sans';-inkscape-font-specification:'Noto Sans';letter-spacing:0px;writing-mode:lr-tb;direction:ltr;display:inline;fill:#b326ca;fill-opacity:1;stroke-width:0.264583"
       x="12.54269"
       y="132.95654"
       id="text8"><tspan
         sodipodi:role="line"
         id="tspan8"
         style="font-style:normal;font-variant:normal;font-weight:500;font-stretch:normal;font-size:5.64444px;line-height:1.25;font-family:'寒蝉宽黑体';-inkscape-font-specification:'寒蝉宽黑体 Medium';letter-spacing:0px;fill:#b326ca;fill-opacity:1;stroke-width:0.264583"
         x="12.54269"
         y="132.95654">自软云书屋</tspan></text>
  </g>
  <metadata
     id="metadata1">
    <rdf:RDF>
      <cc:Work
         rdf:about="">
        <dc:title>GitHub Banner of Free Software, Free Society v3 Chinese Translation (Edited by Mike Wang)</dc:title>
        <dc:creator>
          <cc:Agent>
            <dc:title>Mike Wang</dc:title>
          </cc:Agent>
        </dc:creator>
        <dc:rights>
          <cc:Agent>
            <dc:title>© 2026 Mike Wang.</dc:title>
          </cc:Agent>
        </dc:rights>
        <dc:publisher>
          <cc:Agent>
            <dc:title>Yunhu FLOSS Bookstore</dc:title>
          </cc:Agent>
        </dc:publisher>
      </cc:Work>
    </rdf:RDF>
  </metadata>
</svg>
